<?xml version="1.0" standalone="no"?>
<!DOCTYPE svg PUBLIC "-//W3C//DTD SVG 20010904//EN"
 "http://www.w3.org/TR/2001/REC-SVG-20010904/DTD/svg10.dtd">
<svg version="1.0" xmlns="http://www.w3.org/2000/svg"
 width="177.000000pt" height="177.000000pt" viewBox="0 0 177.000000 177.000000"
 preserveAspectRatio="xMidYMid meet">
<metadata>
Created by potrace 1.11, written by Peter Selinger 2001-2013
</metadata>
<g transform="translate(0.000000,177.000000) scale(0.100000,-0.100000)"
fill="#000000" stroke="none">
<path d="M24 1388 c63 -111 286 -511 286 -515 0 -3 8 -17 18 -31 11 -15 36
-58 57 -97 40 -73 216 -388 219 -392 1 -1 40 66 86 149 47 83 104 186 128 227
24 42 48 86 54 98 10 21 12 19 43 -32 18 -30 35 -58 37 -62 8 -21 212 -382
214 -380 2 3 332 590 466 832 55 99 109 195 120 213 l20 32 -887 0 -886 0 25
-42z"/>
</g>
</svg>
